<?xml version="1.0" encoding="UTF-8"?>
<svg viewBox="0 0 442.09915 182.56021" xmlns="http://www.w3.org/2000/svg" xmlns:xlink="http://www.w3.org/1999/xlink">
 <defs>
  <filter id="y">
   <feGaussianBlur stdDeviation="1.94134"/>
  </filter>
  <filter id="w">
   <feGaussianBlur stdDeviation="3.0856"/>
  </filter>
  <filter id="v">
   <feGaussianBlur stdDeviation=".81656"/>
  </filter>
  <filter id="x">
   <feGaussianBlur stdDeviation=".23666"/>
  </filter>
  <filter id="e">
   <feGaussianBlur stdDeviation="1.29041"/>
  </filter>
  <filter id="u">
   <feGaussianBlur stdDeviation="1.28807"/>
  </filter>
  <filter id="i" x="-.06185" y="-.15422" width="1.1237" height="1.3084">
   <feGaussianBlur stdDeviation="5.33868"/>
  </filter>
  <filter id="d" x="-.03862" y="-.14581" width="1.0772" height="1.2916">
   <feGaussianBlur stdDeviation="1.96025"/>
  </filter>
  <linearGradient id="a">
   <stop stop-color="#fff" offset="0"/>
   <stop stop-color="#fff" stop-opacity="0" offset="1"/>
  </linearGradient>
  <linearGradient id="r" x1="442.21" x2="442.78" y1="-84.905" y2="-80.445" gradientTransform="matrix(.99878 -.049322 .049322 .99878 -18.17 328.48)" gradientUnits="userSpaceOnUse">
   <stop stop-color="#160b00" offset="0"/>
   <stop stop-color="#ce6a03" stop-opacity="0" offset="1"/>
  </linearGradient>
  <linearGradient id="c" x1="348.18" x2="225.27" y1="171.58" y2="183.54" gradientUnits="userSpaceOnUse">
   <stop stop-color="#ff4500" offset="0"/>
   <stop stop-color="#ff4500" stop-opacity="0" offset="1"/>
  </linearGradient>
  <linearGradient id="h">
   <stop stop-color="#fff" stop-opacity="0" offset="0"/>
   <stop stop-color="#464646" stop-opacity="0" offset=".62234"/>
   <stop stop-color="#343434" offset=".70002"/>
   <stop stop-color="#fff" stop-opacity="0" offset=".82341"/>
   <stop stop-color="#c9c9c9" stop-opacity="0" offset="1"/>
  </linearGradient>
  <linearGradient id="g">
   <stop stop-color="#fff" offset="0"/>
   <stop stop-color="#bbb" offset=".48993"/>
   <stop stop-color="#5f5f5f" offset=".62234"/>
   <stop offset=".75"/>
   <stop stop-color="#cfcfcf" offset="1"/>
  </linearGradient>
  <linearGradient id="s" x1="330.95" x2="347.02" y1="228.43" y2="279.67" gradientUnits="userSpaceOnUse" xlink:href="#a"/>
  <linearGradient id="q" x1="307.47" x2="309.26" y1="317.02" y2="358.61" gradientUnits="userSpaceOnUse" xlink:href="#a"/>
  <linearGradient id="p" x1="467.86" x2="466.26" y1="213.34" y2="231.94" gradientUnits="userSpaceOnUse" xlink:href="#a"/>
  <linearGradient id="t" x1="198.77" x2="195.67" y1="315.66" y2="334.19" gradientUnits="userSpaceOnUse" xlink:href="#a"/>
  <radialGradient id="f" cx="247.01" cy="210.84" r="28.253" gradientTransform="matrix(1.5388 .074101 -.045902 2.0748 -123.41 -244.9)" gradientUnits="userSpaceOnUse">
   <stop offset="0"/>
   <stop offset=".43085"/>
   <stop stop-color="#454545" offset=".57325"/>
   <stop offset=".63033"/>
   <stop offset="1"/>
  </radialGradient>
  <radialGradient id="k" cx="287.27" cy="-29.954" r="43.291" gradientTransform="matrix(1.9223 .18681 -.026992 .35583 -265.77 -58.404)" gradientUnits="userSpaceOnUse">
   <stop stop-color="#6d6d6d" offset="0"/>
   <stop offset="1"/>
  </radialGradient>
  <radialGradient id="j" cx="383.87" cy="2.0145" r="140.6" gradientTransform="matrix(-.023038 -.24811 1.3396 -.12438 375.91 370.44)" gradientUnits="userSpaceOnUse">
   <stop stop-color="#c0c0c0" stop-opacity="0" offset="0"/>
   <stop stop-color="#787878" stop-opacity=".68657" offset="1"/>
  </radialGradient>
  <radialGradient id="b" cx="240.15" cy="183.06" r="60.435" gradientTransform="matrix(2.8763 -.10296 .03944 1.2145 -459.6 -14.422)" gradientUnits="userSpaceOnUse">
   <stop stop-color="#c20000" offset="0"/>
   <stop stop-color="#2b0000" offset="1"/>
  </radialGradient>
  <radialGradient id="o" cx="297.36" cy="346.58" r="26.971" gradientTransform="matrix(1.2932 .035024 -.043075 2.1115 -72.635 -399.07)" gradientUnits="userSpaceOnUse" xlink:href="#g"/>
  <radialGradient id="n" cx="305.33" cy="350.7" r="26.971" gradientTransform="matrix(1.1978 .074055 -.096686 1.8 -24.855 -302.34)" gradientUnits="userSpaceOnUse" xlink:href="#h"/>
  <radialGradient id="m" cx="305.26" cy="350.64" r="26.971" gradientTransform="matrix(1.1583 .054613 -.065629 1.848 -23.628 -313.13)" gradientUnits="userSpaceOnUse" xlink:href="#h"/>
  <radialGradient id="l" cx="297.36" cy="346.58" r="26.971" gradientTransform="matrix(1.3506 .03012 -.04044 2.4076 -90.637 -500.23)" gradientUnits="userSpaceOnUse" xlink:href="#g"/>
 </defs>
 <g transform="translate(-142.46 -217.33)">
  <path d="m163.66 362.67s8.527 14.248 15.338 16.237c13.338 3.8946 84.581 20.491 96.515 20.491s39.113-4.2625 47.371-9.8545c9.0988-6.1609 35.145-25.858 44.271-29.368s63.182-27.379 101.09-16.848 60.374 18.955 69.5 18.252 28.54-6.0034 28.54-6.0034l14.985-14.355s9.4735-12.489-6.5259-17.475c-15.691-4.8903-119.84-10.606-119.84-10.606l-37.909 4.9141-65.99 37.207-65.99 29.485-121.36-22.076z" fill-rule="evenodd" filter="url(#u)" opacity=".55518" stroke="#000"/>
  <path d="m449.5 226.27c-0.29836 0.00875-0.59872 0.06538-0.9375 0.15625-3.543 0.95043-0.0288 26.562-10.969 33.062-3.8872-0.08653-7.4322 0.18947-9.9375 1.125-32.54 12.151-115.1 20.814-151.03 26.906-35.277 5.9814-43.673 2.6285-57.438 0.125l-12.25 7 9.375 10.062 28.125 1.3438 25.125-9.0625 39.844-6 26.125 11.375 28.812-6.375 86.406-22.438 32.5-5 4.3438-4.7188-0.6875-1.3125 0.375-0.21875s-20.406-0.46875-25.844-0.46875c-0.80547 0-1.9848-0.12909-3.3438-0.28125l5.2188 0.1875c-11.58-8.1311-5.9275-35.7-13.812-35.469z" fill="#850000" fill-rule="evenodd" stroke="#510000"/>
  <path transform="matrix(.97401,.22651,0,1,0,0)" d="m389.18 180.3h14.686a6.6778 6.9869 0 0 1 6.6778 6.9869v9.5275a6.6778 6.9869 0 0 1 -6.6778 6.9869h-14.686a6.6778 6.9869 0 0 1 -6.6778 -6.9869v-9.5275a6.6778 6.9869 0 0 1 6.6778 -6.9869" fill-rule="evenodd"/>
  <g transform="matrix(.74812 0 0 .74812 166.06 311.66)">
   <path transform="matrix(.86747 0 0 1 23.391 0)" d="m215.98-45.843a19.742 19.742 0 1 1 -39.485 0 19.742 19.742 0 1 1 39.485 0z" fill="none" stroke="#000" stroke-width="4.4354"/>
   <path transform="matrix(.86747 0 0 1 23.391 0)" d="m215.98-45.843a19.742 19.742 0 1 1 -39.485 0 19.742 19.742 0 1 1 39.485 0z" fill="none" filter="url(#v)" stroke="#bebebe" stroke-width="1.107"/>
   <path d="m178.44-46.248c7.8398 1.2432 10.177 2.5832 15.08 7.1942 3.9694-3.8154 12.049-7.0912 15.143-6.9338l-0.34325-3.0285c-16.666 4.4462-17.23 2.8174-29.65-0.24324l-0.22947 3.0113z" fill-rule="evenodd" stroke="#000"/>
   <path d="m193.13-45.543c-7.0846 3.5423-37.273 16.917-37.273 16.917l2.9519 5.9038 35.372-19.352-1.0504-3.4684z" fill-rule="evenodd" stroke="#000"/>
  </g>
  <path transform="matrix(1.1319 0 0 1 -72.175 304.22)" d="m337.29-7.3097a43.291 15.461 0 1 1 -86.582 0 43.291 15.461 0 1 1 86.582 0z" fill="url(#k)" fill-rule="evenodd"/>
  <path transform="matrix(.97401,.22651,0,1,0,0)" d="m450.78 152.35h14.686a6.6778 6.9869 0 0 1 6.6778 6.9869v9.5275a6.6778 6.9869 0 0 1 -6.6778 6.9869h-14.686a6.6778 6.9869 0 0 1 -6.6778 -6.9869v-9.5275a6.6778 6.9869 0 0 1 6.6778 -6.9869" fill-rule="evenodd"/>
  <path d="m448.74 217.44c0.49078 1.0437 0.93181 2.1068 4.371 2.0032l119.69 7.9065 5.2797-1.3989-43.835 11.44c-1.0518 2.7355-3.1752 3.1336-5.5603 2.9609l-123.56-12.676c-2.6911-0.31242-2.3162-1.125-2.6656-2.3162l46.275-7.9191z" fill="#d40000" fill-rule="evenodd" stroke="#8a0000" stroke-width=".203"/>
  <path d="m403.11 225.82c0.0415 0.94854 1.3959 1.2406 3.0518 1.382l123.33 12.429c2.4046-0.02951 3.5344-2.3329 5.3164-2.8218 5.0577-1.7785 35.453-9.4607 36.896-9.6343" fill="none" filter="url(#x)" stroke="#fff" stroke-width=".3"/>
  <path d="m212.3 292.05c78.323-44.643 187.11-110.88 278.13-26.769-101.4 27.02-153.98 46.64-183.4 27.899l-64.969 11.826c-30.964 16.956-35.151 0.93089-29.765-12.956z" fill="url(#j)" fill-rule="evenodd" stroke="#000" stroke-opacity=".47584" stroke-width=".387"/>
  <g transform="matrix(.8116 0 0 .91522 349.81 125.16)">
   <path d="m240.88 259.05c-2.7911-0.49329-19.544-4.9992-30.359-9.8517l-0.84332-3.9806-5.1281-16.395 2.0912-24.143 7.9844-21.672 16.159-14.258 17.961-4.3836 16.257 7.1952 10.781 10.722 2.7955 5.0642-6.2378-8.2113c-7.0104-2.8171-13.21-7.6621-21.508-7.259-11.124-3.727-64.309 32.226-9.9535 87.173z" fill-rule="evenodd" stroke="#000" stroke-linejoin="round"/>
   <path transform="matrix(1.2299 .19574 -.16807 1.1964 -19.977 -87.65)" d="m275.26 210.84a28.253 39.15 0 1 1 -56.505 0 28.253 39.15 0 1 1 56.505 0z" fill="url(#f)"/>
   <path transform="matrix(1.0511 .16228 -.14364 .99184 20.304 -35.816)" d="m275.26 210.84a28.253 39.15 0 1 1 -56.505 0 28.253 39.15 0 1 1 56.505 0z" fill="#f2f2f2"/>
  </g>
  <g transform="translate(52.671 138.91)">
   <path d="m240.88 259.05c-2.7911-0.49329-19.544-4.9992-30.359-9.8517l-0.84332-3.9806-5.1281-16.395 2.0912-24.143 7.9844-21.672 16.159-14.258 19.242-7.8955 18.82 5.6459 11.829 19.088v2.6885l-8.3344-9.1409c-7.0104-2.8171-13.21-7.6621-21.508-7.259-11.124-3.727-64.309 32.226-9.9535 87.173z" fill-rule="evenodd" stroke="#000" stroke-linejoin="round"/>
   <path transform="matrix(1.2299 .19574 -.16807 1.1964 -19.977 -87.65)" d="m275.26 210.84a28.253 39.15 0 1 1 -56.505 0 28.253 39.15 0 1 1 56.505 0z" fill="url(#f)"/>
   <path transform="matrix(1.0511 .16228 -.14364 .99184 20.304 -35.816)" d="m275.26 210.84a28.253 39.15 0 1 1 -56.505 0 28.253 39.15 0 1 1 56.505 0z" fill="#f2f2f2"/>
  </g>
  <path d="m494.51 237.25c-2.2289 11.34-4.33 30.483-16.606 28.437-16.77-2.795-103.54 24.811-116.75 27.875-13.024 3.0204-22.248 8.1839-37.562 0.625-33.384-16.477-74.781 7.2188-74.781 7.2188-5.7993 1.2071-37.833 0.67785-37.062-3.8438 0.38168-2.5212 2.9835-6.8673 8.2188-9.8438 0 1e-5 -19.326-3.835-34-2.4375-38.262 3.8785-45.911 35.577-42.156 51.875s12.964 26.365 22.375 33.125c7.9074 4.918 94.389 22.664 98.312 20.125 2.3465-1.5186-0.71875-4.9062-0.71875-4.9062-16.609-38.362 5.6306-85.476 44.781-79.062 35.321 13.325 30.403 53.382 19.281 74.875 0-1e-5 30.658-28.375 69.469-49.781 26.991-14.887 71.608-23.118 92.219 0.59375 11.491 13.219 28.652 23.974 31.281 20.094 3.4005-5.0181 4.3438-6.1562 4.3438-6.1562-19.253-36.319 15.999-95.08 48.031-56.031 5.0087-1.573 3.3056-3.6445 1.125-5.75-13.11-12.282-36.828-18.078-54.219-18.656-15.302-1e-5 -17.228-16.967-18.956-27.831l-6.625-0.54357z" fill="#a00" fill-rule="evenodd" stroke="#7b0000"/>
  <path d="m469.32 299.24c-26.196 0.78624-49.865 13.998-73.551 23.834-15.184 5.447-35.469 18.783-42.178 16.103-7.4578-1.312-15.412-14.56-11.477 0.25708 1.6869 12.484 0.68275 16.073-3.3835 30.162 26.389-22.778 43.149-33.577 75.551-47.033 19.577-6.9414 42.389-14.071 62.681-6.3231 10.567 4.5853 12.22 11.47 15.08 17.405 1.6106 3.3414 3.9836 7.0765 7.6154 9.2356 6.3047 3.7482 15.654 10.887 18.802 7.9941 2.3413-2.1513 2.2656-4.2138 1.2922-8.901-1.1633-10.382-2.3392-12.811-12.886-13.085-14.312-0.09763-21.827-13.063-27.642-24.105-2.2507-3.2369-5.9539-5.3842-9.904-5.5426zm-321.51 43.83c3.6604 11.878 11.054 19.428 20.615 26.838 29.802 8.8056 58.522 13.776 89.293 18.049-2.7508-6.9076-5.6114-11.695-5.6764-19.478-32.438 0.43933-62.887-1.3428-92.407-16.105-5.0278-2.7554-7.995-5.0016-11.824-9.3042z" fill-rule="evenodd" filter="url(#w)" opacity=".36455"/>
  <path d="m531.28 240.17 43.781-11.163 2.3364-2.8158-42.658 11.108-3.4588 2.8712z" fill="#693601" fill-rule="evenodd"/>
  <path d="m403.29 225.77s-0.18714 1.5958 3.9359 1.6211c1.7305 0.01065 5.2878 0.42584 5.2878 0.42584l40.847-7.5129c-1.8479-0.44928-3.7909-0.7935-4.8013-2.1673l-45.27 7.6332z" fill="url(#r)" fill-rule="evenodd"/>
  <path d="m500.43 241.17s2.2104 24.61 6.805 26.576c10.513 4.498 27.862 2.122 29.109 5.2578 2.8086 2.4393-0.81558 7.3338 0.02024 6.9407 4.6555-2.1897 9.3443-6.9 22.249-3.8745 0.20501-0.41002-16.323-8.2458-34.253-8.8862-8.9892-0.32104-12.187-0.64445-17.226-6.4704-4.8828-5.6447-5.9525-17.826-6.704-19.544z" fill="#fff" fill-rule="evenodd" filter="url(#y)" opacity=".17057"/>
  <path d="m145.71 326.6c-2.8019 0.56037 38.507 22.077 66.997 21.944 27.825-0.12984 39.636-7.301 39.636-7.301 8.0009-33.961 32.997-46.672 60.277-41.624 5.3855 0.89759 0.23299-5.4893-7.8453-6.3869s-28.994-2.4399-44.161 7.8601c-15.057 10.225-55.99 11.015-54.619-3.3757-4.4839-24.599-60.648-6.3931-60.285 28.884z" fill="#f00" fill-rule="evenodd" filter="url(#i)" opacity=".75251"/>
  <path d="m337.35 302.03s22.105 0.79899 61.522-12.251 69.512-21.839 79.366-20.241c7.1419 1.1581 10.121-0.53266 12.518-9.5879s5.8593-20.241 5.8593-20.241-4.5276 23.97-4.5276 27.432 4.2613 9.3216 10.92 9.3216 29.296 2.397 27.698 6.3919c-11.294 10.653-14.706 26.278-15.181 37.553-0.64846 0.60214-9.3216 4.5276-15.181-4.5276s-12.065-24.471-17.578-28.497c-10.158-7.4184-11.538-8.3702-32.759-1.0653-21.263 7.3192-70.311 30.628-79.899 34.357s-32.666 1.9153-33.998-0.74802c-3.4507-6.9014-4.7568-10.283-11.149-13.745s12.388-3.8839 12.388-4.1502z" fill="#f00" fill-rule="evenodd" filter="url(#i)" opacity=".75251"/>
  <path d="m262.23 388.44c-20.117-37.732-1.1044-84.729 38.559-86.759 26.19 1.0866 47.119 24.882 35.025 70.05" fill="none" filter="url(#e)" stroke="#ff4d4d" stroke-linecap="round"/>
  <path d="m520.4 349.22c-13.624-39.587 7.0118-92.613 48.299-67.743" fill="none" filter="url(#e)" stroke="#ff4d4d" stroke-linecap="round"/>
  <path d="m494.78 243.53c-0.06807 0.10944-0.32958 2.1206-0.59375 4.5 0.18767-1.3985 0.37327-2.742 0.59375-4.3125 0-0.1597 0.01613-0.21343 0-0.1875zm-0.59375 4.5c-2.1506 16.026-2.9071 21.133-19.656 20.156-17.157-1e-5 -94.961 23.845-130.44 32.875-13.064 3.3254-19.606-3.8098-25.594-5.7188l-0.0625-0.03125c-6.6488-2.9242-14.464-4.6593-21.688-4.9062-17.646-0.16897-33.237 7.6185-49.344 13.906-7.3492 0.81657-27.801 0.98708-36.375-2.6875s-3.9073-5.6767-4.4062-7.6562c-1.3263-5.2625-21.872-5.2488-36.219 3.1562-10.714 6.2771-23.816 19.576-9.4688 22.719 13.493 2.9576 49.517 12.665 83.219 11.406 5.0752 0.00564 10.269-2.3445 12.719-8.4688 6.1931-18.827 31.188-26.712 46.281-25.656 4.7142 2.1357 21.005 2.0753 36.094 21.188 3.0773 2.5083-5.6588-7.8117 0.09375-6.875 5.7295 0.93296 50.233-13.426 76.75-19.781 11.93-2.8164 32.601-11.878 41.188 0.15625 7.7583-0.52202 12.119 3.4513 10.156 5.5312 3.3064 1.0916 6.0702 3.5466 7.8212 2.2412s4.5003-9.9767 3.3351-13.772c-3.1316-3.2269-7.2976-3.5484-11.719-4.7188-1.1681-0.34126 16.78-1.7774 19.406-4 0.93508-0.18856 2.3125-0.36553 2.3125 0.3125 0 1.01-1.3686-1.3778-5.1562 8.3438-2.3515 6.0356-4.4606 11.497-3.9688 16.062 0.0328 0.03934 0.06388 0.08483 0.09375 0.125 0.81995 2.8107 1.9835 5.3171 4.25 7.1562 4.8432 3.5906 13.864 8.1506 19.469 10.844 1.8834 0.54418 3.7964 1.0944 5.75 1.7188 2.3128-23.384 11.352-48.195 37.188-50.656-8.5203-1.2064-16.48-3.9548-25-3.625-8.94 0.06261-12.347-2.9319-15.469-6.4688-2.1868-2.4778-3.5423-9.4317-4.2812-14.094 2.2327 14.855 2.2019 21.708-7.6875 24.531-2.2149-0.30856-4.0955-1.0559-3.125-2.7812 0.78498-1.3955 0.6665-1.1895 1.125-2 1.1535-1.2163 1.8245-2.478 1.9688-3.3438 0.24596-1.4758-0.23742-9.1084 0.4375-15.188z" fill="url(#t)" fill-rule="evenodd" opacity=".2107"/>
  <path d="m221.08 291.66c0.64927-2.9136 76.514-46.561 131.28-60.084 35.702-7.7426 62.209-6.5652 54.425 7.0827 0 0-7.9065 14.181-73.684 29.554-63.102 14.748-114.49 39.42-112.02 23.447z" fill="url(#s)" fill-rule="evenodd"/>
  <path d="m344.08 365.48c51.765-44.737 92.95-56.597 121.61-50.806 25.29 5.109 28.628 24.015 48.765 32.98l-2.6522-12.391c-33.788-13.747-31.597-27.53-55.358-28.465-36.439 0.13195-90.955 37.233-99.668 41.603-8.1018 4.0634-10.59-2.4054-10.59-2.4054l-2.1095 19.485z" fill="#fff" fill-rule="evenodd" opacity=".14716"/>
  <path d="m165.97 368.5c27.229 8.7022 71.967 17.729 89.098 18.816 0 0-2.0201-8.3408-4.0122-11.001-1.0117-0.1114-1.5486 0.70941-2.5697 0.79252-17.402 1.4164-50.999-4.4721-87.611-16.106-2.6406-0.83909-4.086-2.7494-5.8349-3.1543 2.5762 3.3376 6.5193 6.9486 10.93 10.653z" fill="#fff" fill-rule="evenodd" opacity=".14716"/>
  <path d="m162.75 365.98c-38.353-34.675-8.5504-85.53 39.549-78.664 2.7108 0.38695 10.698 1.9447 13.553 1.5717" fill="none" filter="url(#e)" stroke="#ff4d4d" stroke-linecap="round"/>
  <path d="m422.26 230.65c17.781 7.0234 60.596 22.082 28.783 34.399 10.709-2.8299 21.442-5.7971 31.24-3.1591 0 0-17.963-15.471-34.75-22.816-16.848-7.3712-24.922-8.0732-25.273-8.4242z" fill="#fff" fill-rule="evenodd" opacity=".3612"/>
  <path d="m285.37 286.46s32.732-1.9753 40.366 5.9672c6.0347 6.2786 26.326 2.106 30.538 0s86.348-23.869 86.348-23.869-88.454 15.093-96.528 15.444-6.6692-5.2651-20.008-5.2651-41.419 7.7222-40.717 7.7222z" fill="#fff" fill-rule="evenodd" opacity=".19064"/>
  <path d="m416.06 233.81c19.26 23.735-83.063 43.014-61.921 39.108 2.7158-1.0863 63.854-4.6635 74.174-9.552s18.164-7.8293 8.9297-17.606-21.727-11.406-21.183-11.95z" fill="#fff" fill-rule="evenodd" opacity=".16722"/>
  <path transform="matrix(.15897 -.0112 .01067 .15141 395.38 266.48)" d="m346.79 183.18a60.435 14.871 0 1 1 -120.87 0 60.435 14.871 0 1 1 120.87 0z" fill="url(#b)" fill-rule="evenodd"/>
  <path transform="matrix(.17038 -.012 .01143 .16228 391.97 264.72)" d="m346.79 183.18a60.435 14.871 0 1 1 -120.87 0 60.435 14.871 0 1 1 120.87 0z" fill="none" filter="url(#d)" stroke="url(#c)" stroke-width="1.248"/>
  <path transform="matrix(.15897 -.0112 .01067 .15141 404.83 272.32)" d="m346.79 183.18a60.435 14.871 0 1 1 -120.87 0 60.435 14.871 0 1 1 120.87 0z" fill="url(#b)" fill-rule="evenodd"/>
  <path transform="matrix(.17038 -.012 .01143 .16228 401.43 270.56)" d="m346.79 183.18a60.435 14.871 0 1 1 -120.87 0 60.435 14.871 0 1 1 120.87 0z" fill="none" filter="url(#d)" stroke="url(#c)" stroke-width="1.248"/>
  <path transform="matrix(.15897 -.0112 .01067 .15141 413.02 278.62)" d="m346.79 183.18a60.435 14.871 0 1 1 -120.87 0 60.435 14.871 0 1 1 120.87 0z" fill="url(#b)" fill-rule="evenodd"/>
  <path transform="matrix(.17038 -.012 .01143 .16228 409.62 276.86)" d="m346.79 183.18a60.435 14.871 0 1 1 -120.87 0 60.435 14.871 0 1 1 120.87 0z" fill="none" filter="url(#d)" stroke="url(#c)" stroke-width="1.248"/>
  <path transform="matrix(1.1221 .14989 -.13008 .97382 3.8678 -36.145)" d="m333.29 351.53a26.347 39.52 0 1 1 -52.694 0 26.347 39.52 0 1 1 52.694 0z" fill="url(#l)" fill-rule="evenodd" stroke="#5b5b5b" stroke-width="1.248"/>
  <path transform="matrix(1.1221 .14989 -.13008 .97382 3.8678 -36.145)" d="m333.29 351.53a26.347 39.52 0 1 1 -52.694 0 26.347 39.52 0 1 1 52.694 0z" fill="url(#m)" fill-rule="evenodd" stroke="#5b5b5b" stroke-width="1.248"/>
  <path transform="matrix(.90796 .12542 -.10297 .89982 309.93 -33.854)" d="m333.29 351.53a26.347 39.52 0 1 1 -52.694 0 26.347 39.52 0 1 1 52.694 0z" fill="url(#o)" fill-rule="evenodd" stroke="#5b5b5b" stroke-width="1.248"/>
  <path transform="matrix(.90796 .12542 -.10297 .89982 309.93 -33.854)" d="m333.29 351.53a26.347 39.52 0 1 1 -52.694 0 26.347 39.52 0 1 1 52.694 0z" fill="url(#n)" fill-rule="evenodd" stroke="#5b5b5b" stroke-width="1.248"/>
  <path transform="matrix(1.234 0 0 1.1742 -78.037 -62.468)" d="m325.78 343.19a14.03 15.423 0 1 1 -28.06 0 14.03 15.423 0 1 1 28.06 0z" fill="url(#q)" fill-rule="evenodd" opacity=".45485"/>
  <path d="m429.25 226.67c-12.275-1.7262 16.716-5.2386 20.714-6.1376 29.345 1.2946 75.848 5.3493 117.04 7.5105-5.3145 1.1736-24.874 6.5589-34.279 8.3496-5.9684 1.1363-84.176-7.0086-103.47-9.7225z" fill="url(#p)" fill-rule="evenodd"/>
 </g>
</svg>
